<svg width="60" height="51" viewBox="0 0 60 51" fill="none" xmlns="http://www.w3.org/2000/svg">
<path d="M54.263 43.0509C54.378 42.8837 54.4258 42.7115 54.3975 42.5356C54.1533 40.995 48.0576 39.7609 40.7554 39.7698C37.5271 39.7739 34.5659 40.0159 32.2468 40.4173C29.9278 40.8187 26.7968 40.9998 23.7489 40.9345C22.9546 40.9177 22.1462 40.9095 21.329 40.9113C9.87865 40.9363 0.437837 42.8736 0.0150612 45.2888C-0.437786 47.8802 9.37981 50.0113 21.5554 50.0113C23.6463 50.0113 25.6664 49.9485 27.5769 49.8313C30.7804 49.6349 34.1874 49.6685 37.3007 49.9213C39.1563 50.0717 41.1747 50.1524 43.2868 50.1475C52.0112 50.1281 59.1577 48.6293 59.3063 46.7876C59.3682 46.0087 58.1971 45.288 56.177 44.707C54.5177 44.2302 53.8597 43.6357 54.2648 43.0506L54.263 43.0509Z" fill="#FCE8E8"/>
<path d="M41.3857 32.3283C41.2017 30.8671 41.8955 33.4617 41.7116 32.0004C41.6231 31.2885 42.133 32.0566 42.0374 31.3447C41.9578 30.7467 43.0554 31.1855 42.6892 30.6889C42.3 30.1639 43.2517 30.6601 42.6892 30.3611C42.086 30.0407 43.3136 29.9794 42.6892 29.7053C42.0718 29.4348 43.9937 28.8926 43.3409 28.7217C42.7572 28.5686 44.5543 27.7363 43.944 27.747C44.71 25.2285 44.8904 22.5481 44.5914 19.9354C44.2554 17.0147 43.3744 14.1813 42.0813 11.5472C41.3685 10.0931 40.5406 8.66388 39.2298 7.67787C39.1679 7.63159 39.1007 7.61379 39.0299 7.61379C38.892 7.40555 38.7292 7.21334 38.5541 7.02824C38.218 6.67405 37.8607 6.33945 37.4892 6.02264C35.9485 4.71093 34.1672 3.72313 32.2656 3.05215C28.1263 1.59271 23.5996 1.76713 19.4178 2.95782C17.3535 3.54693 15.3157 4.35497 13.4371 5.40149C11.7725 6.32877 10.2106 7.49988 9.05016 9.03408C8.51064 9.74778 8.0861 10.5362 7.78538 11.3816C7.50412 11.8319 7.29185 12.3214 7.14149 12.8322C7.01236 13.2718 6.92391 13.7239 6.7877 14.1617C6.64088 14.6316 6.40562 15.0249 6.16504 15.4485C5.96869 15.792 5.83425 16.1782 5.70335 16.552C5.40086 17.417 5.12668 18.3193 4.94802 19.2181C4.76228 20.1614 4.90026 21.1688 5.00109 22.1157C5.42563 26.0882 6.63734 30.1034 9.08377 33.3053C9.3898 33.7058 9.70466 34.1062 10.0549 34.4675C10.3432 34.763 10.6935 34.9765 11.0561 35.167C11.1941 35.24 11.3321 35.3147 11.4647 35.3948C11.5461 35.4446 11.6416 35.5194 11.677 35.6066C11.6823 35.6208 11.6859 35.6279 11.6894 35.6351C11.6894 35.6404 11.6912 35.6457 11.6947 35.6546C11.7 35.676 11.7053 35.6974 11.7089 35.7205C11.7053 35.7241 11.7106 35.8237 11.7106 35.8219C11.7106 35.8593 11.7071 35.8967 11.7036 35.9323C11.6929 36.0498 11.6841 36.137 11.6965 36.2527C11.7743 36.9076 11.983 37.5448 12.121 38.1873C12.144 38.2923 12.1652 38.3991 12.1812 38.5059C12.1776 38.5006 12.1865 38.5842 12.19 38.602C12.19 38.602 12.19 38.6038 12.19 38.6056C12.19 38.6145 12.1865 38.6216 12.1847 38.6323C12.1741 38.6821 12.1635 38.7319 12.1511 38.7818C12.0467 39.2338 11.9017 39.6859 11.8822 40.1522C11.8628 40.6381 12.0273 41.1151 12.2961 41.5138C12.4465 41.7362 12.6322 41.9534 12.9011 42.0299C13.2178 42.1189 13.5273 42.0086 13.8015 41.8466C14.318 41.5405 14.8169 41.1987 15.3228 40.8766C15.7827 40.5829 16.2426 40.2288 16.745 40.0081C17.2615 39.7802 17.8117 39.9262 18.3406 40.0259C18.9314 40.138 19.5222 40.2519 20.1077 40.3925C21.2292 40.6595 22.3207 41.0617 23.4616 41.2415C24.5495 41.4123 25.6339 41.35 26.6775 40.9941C26.8473 41.0955 27.0525 41.1454 27.24 41.1507C27.6133 41.1614 27.9883 41.0261 28.3439 40.9247C28.7419 40.8125 29.1381 40.6933 29.5326 40.5669C30.3463 40.3071 31.1511 40.0205 31.9472 39.7073C33.548 39.0772 35.11 38.3457 36.6171 37.5128C36.9904 37.3063 37.3618 37.0927 37.728 36.872C38.0818 36.6602 38.4444 36.452 38.7522 36.1761C39.0565 35.9038 39.2599 35.5479 39.435 35.183C39.3413 35.6813 40.5018 33.7972 40.4081 34.2956C40.2772 34.9861 40.6526 32.935 40.734 33.6398C40.8065 34.2752 40.4067 32.7638 40.734 33.312C41.3549 34.3496 39.9507 32.8314 41.0598 33.312C41.6347 33.5611 40.1042 32.993 40.734 32.9841C41.4327 32.9734 40.3894 33.1727 41.0598 32.9841C42.4219 32.5996 40.0608 33.1581 41.3857 32.6562C41.7306 32.5263 41.0443 33.1211 41.3857 32.9841C41.6829 32.8648 41.1221 32.8413 41.3857 32.6562C41.4653 33.2987 42.0101 32.213 41.3857 32.6562V32.3283Z" fill="#F9FBFD"/>
<g opacity="0.25">
<path d="M29.7574 40.4922C29.7026 40.4335 29.6318 40.3854 29.5469 40.3498C26.9271 39.2481 24.4365 37.8083 22.174 36.0819C19.9363 34.375 17.9074 32.3496 16.2446 30.0697C15.4008 28.9128 14.6455 27.6901 13.998 26.4122C13.2409 24.9207 12.6342 23.3473 12.3865 21.6832C11.8895 18.3639 12.8252 14.9965 14.0635 11.9459C14.6844 10.417 15.3937 8.91666 16.1597 7.45544C16.8778 6.08321 17.6827 4.73768 18.714 3.57724C18.8891 3.37969 19.0713 3.19103 19.2588 3.00771C17.2493 3.59148 15.2699 4.3835 13.4391 5.40155C12.1424 6.12415 10.9095 6.99803 9.8782 8.07304C9.24316 8.86683 8.65941 9.70334 8.12343 10.5701C7.99783 10.8335 7.88462 11.104 7.78733 11.3799C7.50607 11.8302 7.2938 12.3197 7.14344 12.8305C7.01431 13.2701 6.92586 13.7221 6.78966 14.16C6.64284 14.6298 6.40757 15.0232 6.16699 15.4468C5.97064 15.7903 5.8362 16.1765 5.7053 16.5503C5.40282 17.4152 5.12863 18.3176 4.94997 19.2164C4.76423 20.1597 4.90221 21.1671 5.00304 22.1139C5.42758 26.0865 6.6393 30.1017 9.08572 33.3036C9.39175 33.704 9.70662 34.1045 10.0569 34.4658C10.3452 34.7612 10.6954 34.9748 11.0581 35.1653C11.1961 35.2382 11.334 35.313 11.4667 35.3931C11.5481 35.4429 11.6436 35.5177 11.679 35.6049C11.6843 35.6191 11.6878 35.6262 11.6914 35.6333C11.6914 35.6387 11.6931 35.644 11.6967 35.6529C11.702 35.6743 11.7073 35.6956 11.7108 35.7188C11.7073 35.7223 11.7126 35.822 11.7126 35.8202C11.7126 35.8576 11.709 35.895 11.7055 35.9306C11.6949 36.048 11.686 36.1353 11.6984 36.2509C11.7763 36.9059 11.985 37.5431 12.123 38.1856C12.146 38.2906 12.1672 38.3974 12.1831 38.5042C12.1796 38.4988 12.1884 38.5825 12.192 38.6003C12.192 38.6003 12.192 38.6021 12.192 38.6038C12.192 38.6127 12.1884 38.6199 12.1867 38.6305C12.176 38.6804 12.1654 38.7302 12.153 38.78C12.0487 39.2321 11.9036 39.6842 11.8842 40.1505C11.8789 40.2982 11.8912 40.4459 11.9178 40.5901C12.0151 40.8464 12.123 41.0974 12.2415 41.343C12.4095 41.6918 12.9614 41.5921 13.0499 41.2362C13.1808 40.7129 13.3241 40.1469 13.6655 39.7162C13.9167 39.3994 14.3306 39.1467 14.7481 39.1983C14.9462 39.2232 15.0859 39.3318 15.2274 39.4635C15.4432 39.6664 15.6626 39.8693 15.9545 39.9476C16.2516 40.0277 16.5347 39.9316 16.8177 39.8479C17.0795 39.7714 17.3201 39.8123 17.5695 39.8924C17.8278 39.9156 18.0878 39.9725 18.3425 40.0206C18.9333 40.1327 19.5242 40.2466 20.1097 40.3872C21.2312 40.6542 22.3226 41.0564 23.4636 41.2362C23.5962 41.2575 23.7271 41.2736 23.8598 41.2878C24.1499 41.3038 24.44 41.3163 24.7301 41.3252C25.3899 41.3127 26.0427 41.2059 26.6795 40.9888C26.8493 41.0902 27.0545 41.1401 27.242 41.1454C27.6152 41.1561 27.9902 41.0208 28.3458 40.9194C28.7438 40.8072 29.1401 40.688 29.5345 40.5616C29.6106 40.5385 29.6849 40.5118 29.7592 40.4887L29.7574 40.4922Z" fill="#F23F2C"/>
</g>
<path d="M9.16439 9.64807L9.175 9.65341C9.43327 9.79046 9.75521 9.72638 9.93741 9.49501C13.4647 4.99388 18.9324 2.09813 25.0582 2.09813C35.67 2.09813 44.3041 10.7836 44.3041 21.4571V21.4784C44.3041 21.7953 44.5376 22.0622 44.8507 22.096C44.8543 22.096 44.8596 22.096 44.8631 22.096C45.224 22.1352 45.5406 21.854 45.5424 21.4891C45.5424 21.4784 45.5424 21.466 45.5424 21.4553C45.5441 10.0966 36.3546 0.852264 25.0582 0.852264C18.5397 0.852264 12.7217 3.93311 8.96804 8.72435C8.731 9.02514 8.82653 9.47009 9.16439 9.64807Z" fill="#F23F2C"/>
<path d="M20.1579 20.6562C19.813 20.6562 19.5635 20.5085 19.4079 20.2949C19.2611 20.6456 19.1797 21.03 19.1797 21.434C19.1797 23.0554 20.4852 24.3689 22.0966 24.3689C23.7081 24.3689 25.0136 23.0554 25.0136 21.434C25.0136 19.8126 23.7081 18.4991 22.0966 18.4991C21.5925 18.4991 21.1202 18.6273 20.7063 18.8533C21.3767 19.3249 21.1927 20.6562 20.1561 20.6562H20.1579Z" fill="#F23F2C"/>
<path d="M38.1961 25.6379C39.8076 25.6379 41.113 24.3244 41.113 22.703C41.113 21.0816 39.8076 19.7681 38.1961 19.7681C37.5805 19.7681 37.0091 19.9621 36.5386 20.2895C37.3877 20.6509 37.255 22.1797 36.1459 22.1797C35.8098 22.1797 35.5657 22.0391 35.4082 21.8344C35.3233 22.1085 35.2773 22.4004 35.2773 22.703C35.2773 24.3244 36.5828 25.6379 38.1943 25.6379H38.1961Z" fill="#F23F2C"/>
<path d="M36.8816 15.0886C37.0594 15.2179 37.2239 15.363 37.3745 15.5222C37.5358 15.7191 37.676 15.9307 37.7905 16.1604C37.8649 16.3098 38.0864 16.4299 38.2392 16.4625C38.4139 16.4989 38.6403 16.4614 38.7853 16.3538C38.9314 16.244 39.0561 16.087 39.0855 15.9023C39.0909 15.8404 39.094 15.7773 39.0993 15.7154C39.0904 15.5832 39.0496 15.4618 38.9776 15.3529C38.7559 14.9041 38.4253 14.498 38.0458 14.1742C37.6186 13.8085 37.1332 13.5583 36.6027 13.3855C36.4369 13.331 36.1933 13.4007 36.0566 13.4941C35.9138 13.5915 35.7842 13.7727 35.7564 13.9457C35.7259 14.1326 35.7485 14.3391 35.8644 14.4951C35.9747 14.6455 36.112 14.7265 36.2829 14.7849C36.2571 14.7749 36.2302 14.7671 36.2045 14.7571C36.4431 14.8394 36.6679 14.9527 36.881 15.0869L36.8816 15.0886Z" fill="#F23F2C"/>
<path d="M22.8507 14.0687C23.043 13.9475 23.2462 13.8463 23.4599 13.7666C23.7018 13.6927 23.9504 13.6446 24.2054 13.6279C24.3704 13.6167 24.5677 13.4592 24.6552 13.3279C24.755 13.1804 24.8098 12.955 24.7669 12.7779C24.7223 12.6002 24.627 12.4248 24.4686 12.3253C24.4133 12.2969 24.358 12.2685 24.3026 12.2401C24.1787 12.197 24.051 12.187 23.9221 12.213C23.4239 12.2454 22.926 12.3951 22.4809 12.6221C21.9807 12.8766 21.5644 13.2307 21.2012 13.6566C21.0884 13.7891 21.057 14.0414 21.0895 14.2065C21.124 14.3763 21.2395 14.5677 21.3878 14.6591C21.5478 14.7592 21.7459 14.8173 21.9344 14.7715C22.115 14.7263 22.241 14.6318 22.363 14.4954C22.3448 14.5168 22.3273 14.5365 22.3075 14.5572C22.4712 14.3744 22.6531 14.2126 22.8507 14.0687Z" fill="#F23F2C"/>
<path d="M19.952 20.9233C20.7297 20.9233 21.3601 20.289 21.3601 19.5066C21.3601 18.7241 20.7297 18.0898 19.952 18.0898C19.1744 18.0898 18.5439 18.7241 18.5439 19.5066C18.5439 20.289 19.1744 20.9233 19.952 20.9233Z" fill="#F9FBFD"/>
<path d="M36.1395 22.6015C36.9172 22.6015 37.5476 21.9672 37.5476 21.1848C37.5476 20.4024 36.9172 19.7681 36.1395 19.7681C35.3619 19.7681 34.7314 20.4024 34.7314 21.1848C34.7314 21.9672 35.3619 22.6015 36.1395 22.6015Z" fill="#F9FBFD"/>
<path d="M44.4811 28.0032C44.8437 26.9157 45.1214 25.7891 45.3001 24.6287C45.3549 24.2727 45.0949 23.9452 44.7394 23.9203H44.727C44.4086 23.8972 44.1255 24.1214 44.0778 24.4382C43.8549 25.887 43.4693 27.2806 42.9439 28.6048C42.905 28.6243 42.8661 28.6439 42.8271 28.6635L44.4811 28.0032Z" fill="#F23F2C"/>
<path d="M38.1242 37.3901L38.3896 35.4092C34.9296 38.7588 30.2313 40.8216 25.0607 40.8216C22.4622 40.8216 19.9414 40.3107 17.5728 39.3034C17.4101 39.234 17.2279 39.2375 17.0687 39.3141L12.7561 41.3591L12.7649 36.6497C12.7649 36.4681 12.6853 36.2937 12.5491 36.1763C8.27183 32.4903 5.81833 27.1277 5.81833 21.4644C5.81833 17.9902 6.73286 14.7278 8.3302 11.9068C8.50356 11.6007 8.39035 11.2127 8.07902 11.0507L8.0684 11.0454C7.77653 10.8941 7.41744 11.0009 7.2547 11.2892C5.55299 14.2935 4.58008 17.7677 4.58008 21.4644C4.58008 27.3039 7.03004 32.8409 11.3215 36.7476C11.4524 36.8668 11.5267 37.0341 11.5267 37.2103L11.5178 42.0283C11.5178 42.6316 12.1405 43.0285 12.6818 42.7722L17.1094 40.6738C17.2633 40.6009 17.4402 40.5973 17.5994 40.6596C19.9751 41.5958 22.4834 42.0692 25.066 42.0692C30.0314 42.0692 34.5864 40.2805 38.1349 37.3118C38.1331 37.3385 38.1313 37.3652 38.1296 37.3919L38.1242 37.3901Z" fill="#F23F2C"/>
<path d="M49.5604 30.2833C49.6541 30.2726 49.7461 30.2637 49.8399 30.2637C49.8805 30.2637 49.923 30.2637 49.9637 30.2673C50.0627 30.2726 49.9 30.2495 49.9513 30.2673C49.9708 30.2726 49.9902 30.2762 50.0097 30.2815C50.0804 30.3011 50.0291 30.3011 50.0044 30.2726C50.015 30.285 50.045 30.2922 50.0592 30.3011C50.0716 30.3082 50.0928 30.3295 50.1087 30.3331C50.061 30.2957 50.0504 30.2868 50.0751 30.3082C50.0822 30.3153 50.0893 30.3206 50.0964 30.3278C50.16 30.3883 50.2166 30.4559 50.2697 30.5253C50.512 30.8368 50.7756 31.1269 51.0675 31.3921L51.6035 30.6926C51.3647 30.5164 51.1259 30.3384 50.8853 30.1622C50.7597 30.0697 50.6323 29.9932 50.4837 29.9415C50.2679 29.8668 50.068 29.8988 49.8629 29.986C49.7691 30.027 49.686 30.1569 49.6594 30.2512C49.6311 30.358 49.6435 30.5004 49.7036 30.5947C49.7638 30.6891 49.8558 30.7727 49.9672 30.7994C50.091 30.8279 50.1919 30.8048 50.3086 30.7549C50.2839 30.7745 50.2573 30.7834 50.2272 30.7834C50.1866 30.787 50.1866 30.7887 50.2237 30.787C50.2007 30.7852 50.1335 30.7656 50.1919 30.7834C50.206 30.787 50.2202 30.7905 50.2343 30.7959C50.2662 30.8065 50.2538 30.8012 50.1989 30.7798C50.2131 30.7763 50.2556 30.8101 50.2679 30.8172C50.3688 30.8759 50.459 30.9489 50.5527 31.0183C50.7544 31.1661 50.9543 31.3156 51.1559 31.4633C51.2391 31.5256 51.4018 31.5398 51.4973 31.5078C51.5929 31.4757 51.6672 31.4259 51.7273 31.3476C51.8547 31.1803 51.8564 30.9115 51.6919 30.7638C51.3753 30.4773 51.1082 30.1569 50.8375 29.8276C50.6819 29.639 50.4802 29.4895 50.2432 29.4236C50.0185 29.3613 49.785 29.372 49.5568 29.3969C49.4365 29.4094 49.3322 29.4379 49.2437 29.5269C49.1677 29.6034 49.1093 29.7315 49.1146 29.8419C49.1252 30.0626 49.3109 30.3135 49.5568 30.2868L49.5604 30.2833Z" fill="#F9FBFD"/>
<path d="M30.225 28.6738C29.8815 28.6304 29.536 28.6235 29.1919 28.6492C28.811 28.7038 28.4372 28.7963 28.0781 28.9373C27.8434 29.0293 27.4707 28.9362 27.2631 28.8143C27.0276 28.6753 26.8063 28.4011 26.7513 28.1289C26.6944 27.8549 26.7104 27.5523 26.8628 27.3112C26.9193 27.236 26.9776 27.1625 27.0341 27.0874C27.1764 26.9485 27.344 26.8539 27.5372 26.8056C28.2413 26.5315 29.0226 26.416 29.781 26.4415C30.6336 26.4702 31.4383 26.6901 32.2143 27.0439C32.4576 27.1553 32.665 27.4828 32.7261 27.7293C32.7913 27.9866 32.7568 28.3227 32.6145 28.547C32.4603 28.7883 32.2288 28.9965 31.9402 29.0526C31.6623 29.1064 31.427 29.0566 31.1711 28.9476C31.2098 28.9641 31.2485 28.9806 31.2871 28.9971C30.9429 28.8501 30.5877 28.7436 30.2215 28.6757L30.225 28.6738Z" fill="#F23F2C"/>
<g clip-path="url(#clip0_6145_6846)">
<path d="M46.151 23.8052C51.5624 23.9093 55.9447 28.3186 56.0481 33.7632L56.0507 33.7619V34.1521C55.9473 39.5968 51.5649 44.0074 46.1536 44.1101H45.7658C44.2559 44.0815 42.7666 43.7108 41.4248 43.0319L36.8317 44.1322L36.8266 44.1127C36.7451 44.1153 36.665 44.1062 36.5861 44.088C36.3431 44.0295 36.1363 43.8799 36.0057 43.6653C35.9087 43.5079 35.8609 43.3284 35.8661 43.1476L35.8467 43.1424L35.8906 42.9538V42.9525L36.939 38.5211C36.2642 37.171 35.8958 35.6726 35.8674 34.1534V33.7632C35.9695 28.3186 40.3518 23.9093 45.7632 23.8052H46.151Z" fill="#F23F2C"/>
<rect width="11.5997" height="2.01734" rx="1.00867" transform="matrix(0.704936 0.709271 -0.704936 0.709271 42.8652 29.1388)" fill="white"/>
<rect width="11.5997" height="2.01734" rx="1.00867" transform="matrix(-0.704936 0.709271 -0.704936 -0.709271 51.043 30.5697)" fill="white"/>
</g>
<defs>
<clipPath id="clip0_6145_6846">
<rect width="20.204" height="20.3283" fill="white" transform="translate(35.8447 23.8036)"/>
</clipPath>
</defs>
</svg>
